<svg width="123" height="19" fill="none" xmlns="http://www.w3.org/2000/svg"><path d="M5.78 16.02v-1.6h-3.2v1.6h3.2zm1.6-1.6V1.62h-1.6v12.8h1.6zm-4.8 0v-3.2H1v3.2h1.58zm11.618 1.6v-1.6h-3.22v1.6h3.22zm-3.22-1.6v-8h-1.58v8h1.58zm4.8-8v6.4h-1.6v1.6h1.6V16h1.6V6.42h-1.6zm5.2 0h-1.58V16h1.58V9.62h1.6v-1.6h-1.6v-1.6zm6.4 9.6v-8h-1.6v8h1.6zm-1.6-8v-1.6h-3.2v1.6h3.2zm5.2 7.98V6.4h-1.58V16h1.58zm0-12.78v-1.6h-1.58v1.6h1.58zm8.394 12.8v-1.6h-4.8v1.6h4.8zm-4.8-1.6v-6.4h-1.58v6.4h1.58zm4.8-6.4v-1.6h-4.8v1.6h4.8zm1.6 6.4v-6.4h-1.6v6.4h1.6zm2.02-8.02V16h1.58V8.02h1.6V6.4h-3.18zm17.55-1.58v-1.6h-1.6v1.6h1.6zm-6.4-1.6h4.8v-1.6h-6.38V16h6.38v-1.58h-4.8V3.22zm6.4 11.2v-1.6h-1.6v1.6h1.6zm1.6-1.6v-8h-1.6v8h1.6zm8.402 3.2v-1.6h-4.8v1.6h4.8zm1.6-1.6v-1.6h-1.6v1.6h1.6zm-1.6-6.4v-1.6h-4.8v1.6h4.8zm1.6 3.2v-3.2h-1.6v1.6h-4.8v-1.6h-1.58v6.4h1.58v-3.2h6.4zm6.8 4.78v-3.18h-1.6V16h1.6zm-1.6-3.18v-3.2h-1.6v3.2h1.6zm-1.6-3.2V6.4h-1.58v3.22h1.58zm4.8 3.2v-3.2h-1.6v3.2h1.6zm1.6-3.2V6.4h-1.6v3.22h1.6zm14.375 6.4v-1.6h-6.4v1.6h6.4zm1.6-1.6v-1.6h-1.6v1.6h1.6zm0-9.6v-1.6h-1.6v1.6h1.6zm-1.6-1.6v-1.6h-6.4v1.6h6.4zm-6.4 11.2V3.22h-1.58v11.2h1.58zM101.721 16V1.62h-1.58V16h1.58zm6.813.02v-1.6h-3.22v1.6h3.22zm-3.22-1.6v-8h-1.58v8h1.58zm4.8-8v6.4h-1.6v1.6h1.6V16h1.6V6.42h-1.6zm5.2 1.6h4.8V6.4h-4.8V1.62h-1.58V16h6.38v-1.58h-4.8v-6.4zm6.4 6.4v-6.4h-1.6v6.4h1.6z" fill="#000"/></svg>